<svg width="108" height="155" fill="none" xmlns="http://www.w3.org/2000/svg"><path d="M98.397 20.43l2.941-5.243-11.457-6.371-2.941 5.243c-.648 1.163-1.979 1.754-3.283 1.503-11.475-2.21-23.562 2.971-29.57 13.672l-51.16 91.157c-3.895 6.934-.225 15.667 7.464 17.788l9.578 2.639a12.362 12.362 0 015.09 2.828l7.284 6.728c5.855 5.404 15.244 3.928 19.138-3.006l51.162-91.157c6.007-10.701 4.101-23.666-3.813-32.22a3.059 3.059 0 01-.432-3.561z" fill="#F0EFED"/><path d="M40.697 155a13.636 13.636 0 01-9.272-3.633l-7.285-6.728a11.118 11.118 0 00-4.532-2.523l-9.578-2.64a13.576 13.576 0 01-8.966-7.865c-1.628-3.874-1.376-8.205.674-11.873L52.91 28.581c6.15-10.97 18.615-16.723 31-14.343.746.143 1.492-.188 1.852-.832l3.606-6.415 13.813 7.677-3.606 6.415c-.36.644-.26 1.45.261 2.004 8.544 9.243 10.153 22.816 3.993 33.786L52.667 148.03a13.577 13.577 0 01-9.803 6.8c-.72.116-1.448.17-2.167.17zM78.333 16.394c-9.451 0-18.328 5.047-23.067 13.502L4.104 121.044a10.803 10.803 0 00-.549 9.529c1.304 3.114 3.93 5.414 7.195 6.317l9.577 2.64a13.69 13.69 0 015.648 3.14l7.285 6.729a10.948 10.948 0 009.172 2.783 10.923 10.923 0 007.87-5.458l51.162-91.157a26.168 26.168 0 00-3.624-30.654 4.397 4.397 0 01-.63-5.136l2.284-4.071-9.1-5.056-2.285 4.071c-.926 1.656-2.833 2.523-4.721 2.166a26.222 26.222 0 00-5.055-.492z" fill="#000"/><path d="M91.05 79.635l-2.357-1.306a.714.714 0 00-.09.43c-.404-1.629-8.21-7.901-21.79-15.444-13.58-7.551-23.04-10.862-24.641-10.361a.656.656 0 00.315-.304l-2.357-1.307c.702-1.252 2.41-1.995 10.109.985 5 1.932 11.349 5.001 17.887 8.634s12.492 7.409 16.772 10.62c6.601 4.958 6.853 6.8 6.152 8.053zm-16.26 28.963l-2.356-1.306a.713.713 0 00-.09.429c-.405-1.628-8.21-7.9-21.79-15.443-13.58-7.543-23.041-10.862-24.65-10.352a.656.656 0 00.314-.304l-2.356-1.307c.701-1.252 2.41-1.995 10.108.985 5 1.932 11.35 5.001 17.887 8.634 6.538 3.633 12.492 7.408 16.773 10.621 6.61 4.956 6.862 6.791 6.16 8.043z" fill="#000"/><path d="M11.271 128.444l3.795 9.448c2.258 5.628 8.957 9.351 14.965 8.313l10.243-1.772" fill="#F0EFED"/><path d="M28.008 147.726c-5.945 0-11.997-3.848-14.192-9.333l-3.795-9.448a1.34 1.34 0 01.756-1.745 1.352 1.352 0 011.753.752l3.795 9.448c2.033 5.065 8.076 8.42 13.481 7.489l10.243-1.771a1.353 1.353 0 011.565 1.091 1.334 1.334 0 01-1.097 1.548l-10.243 1.772a13.03 13.03 0 01-2.267.197z" fill="#000"/><path d="M91.832 1.497c.315-.564 3.876.814 7.95 3.078s7.123 4.554 6.808 5.118l-4.874 8.679a.338.338 0 01-.558.045c-.782-.958-3.363-2.765-6.583-4.555-3.228-1.79-6.133-3.033-7.356-3.185a.334.334 0 01-.252-.501l4.865-8.679z" fill="#F0EFED"/><path d="M101.419 19.884c-.504 0-.989-.224-1.313-.626-.585-.716-2.896-2.398-6.197-4.232-3.3-1.835-5.953-2.908-6.87-3.034a1.686 1.686 0 01-1.295-.912 1.658 1.658 0 01.036-1.575L90.654.817c.81-1.44 2.869-.644 4.236-.116 1.556.6 3.525 1.556 5.549 2.675 8.552 4.751 7.752 6.174 7.32 6.943l-4.874 8.688c-.27.483-.774.805-1.331.85-.036.027-.09.027-.135.027zm-12.645-10.2c1.853.608 4.39 1.861 6.448 2.997 2.06 1.146 4.461 2.64 5.954 3.883l3.867-6.889c-.719-.68-2.608-2.103-5.918-3.937-3.309-1.843-5.521-2.693-6.475-2.944l-3.876 6.89z" fill="#000"/></svg>