<svg xmlns="http://www.w3.org/2000/svg" width="106.143" height="152.917"><g data-name="Group 34"><g data-name="Group 33"><g data-name="Group 29"><path data-name="Path 25" d="M96.54 20.274l2.884-5.164-11.221-6.265-2.883 5.163a3.015 3.015 0 01-3.219 1.476 27.242 27.242 0 00-28.958 13.462l-50.1 89.726a12.066 12.066 0 007.314 17.511l9.381 2.6a12.051 12.051 0 014.988 2.785l7.135 6.623a12.065 12.065 0 0018.744-2.96l50.1-89.727a27.242 27.242 0 00-3.731-31.716 3.013 3.013 0 01-.434-3.514z" fill="#f0efed"/><path data-name="Path 26" d="M40.036 152.917a13.472 13.472 0 01-9.2-3.627l-7.134-6.623a10.607 10.607 0 00-4.368-2.439l-9.382-2.6a13.488 13.488 0 01-8.9-7.846 13.484 13.484 0 01.674-11.841l50.1-89.728a28.683 28.683 0 0130.554-14.2 1.519 1.519 0 001.624-.734l3.614-6.473 13.84 7.728-3.615 6.473a1.519 1.519 0 00.227 1.769 28.679 28.679 0 013.937 33.462l-50.1 89.726a13.483 13.483 0 01-9.728 6.787 13.756 13.756 0 01-2.143.166zM76.888 16.482a25.683 25.683 0 00-22.436 13.194l-50.1 89.728a10.5 10.5 0 00-.524 9.223 10.5 10.5 0 006.928 6.11l9.382 2.6a13.649 13.649 0 015.608 3.131l7.134 6.623a10.5 10.5 0 008.837 2.7 10.5 10.5 0 007.577-5.286l50.1-89.727a25.681 25.681 0 00-3.525-29.968 4.511 4.511 0 01-.638-5.262l2.152-3.854-8.6-4.8-2.152 3.854a4.521 4.521 0 01-4.815 2.217 25.876 25.876 0 00-4.928-.483z" fill="#1d1d1b"/></g><g data-name="Group 30" fill="#1d1d1b"><path data-name="Path 27" d="M89.504 78.637l-2.619-1.464a.824.824 0 00-.105.557c-.484-1.622-8.139-7.771-21.254-15.1s-22.358-10.616-24-10.175a.824.824 0 00.418-.381l-2.619-1.463c.841-1.506 2.884-1.93 10.123.888a149.519 149.519 0 0117.542 8.513 149.254 149.254 0 0116.448 10.47c6.197 4.688 6.907 6.649 6.066 8.155z"/><path data-name="Path 28" d="M73.579 107.154l-2.619-1.463a.813.813 0 00-.1.556c-.484-1.623-8.139-7.772-21.254-15.1s-22.37-10.629-24-10.175a.823.823 0 00.418-.381l-2.619-1.464c.84-1.506 2.882-1.931 10.122.89a149 149 0 0117.543 8.511 149.2 149.2 0 0116.448 10.47c6.193 4.688 6.904 6.65 6.061 8.156z"/></g><g data-name="Group 31"><path data-name="Path 29" d="M11.212 126.6l3.714 9.3a13.892 13.892 0 0014.654 8.182l10.036-1.748" fill="#f0efed"/><path data-name="Path 30" d="M27.605 145.755a15.6 15.6 0 01-14.072-9.294l-3.714-9.3a1.5 1.5 0 01.837-1.949 1.5 1.5 0 011.949.838l3.714 9.3a12.341 12.341 0 0013 7.261l10.035-1.748a1.5 1.5 0 011.735 1.22 1.5 1.5 0 01-1.22 1.735l-10.036 1.748a12.935 12.935 0 01-2.228.189z" fill="#1d1d1b"/></g><g data-name="Group 32"><path data-name="Path 31" d="M90.113 1.634c.309-.554 3.794.8 7.784 3.031s6.973 4.483 6.664 5.037l-4.773 8.548a.33.33 0 01-.548.045 28.264 28.264 0 00-6.449-4.484 28.255 28.255 0 00-7.2-3.139.33.33 0 01-.248-.489z" fill="#f0efed"/><path data-name="Path 32" d="M99.499 19.92a1.837 1.837 0 01-1.425-.681 26.95 26.95 0 00-6.015-4.119 26.951 26.951 0 00-6.665-2.961 1.832 1.832 0 01-1.4-.992 1.828 1.828 0 01.036-1.714L88.805.902c.482-.863 1.29-2.314 9.824 2.454s7.725 6.212 7.242 7.077l-4.772 8.548a1.831 1.831 0 01-1.443.933 2.1 2.1 0 01-.157.006zm.9-2.571zM87.378 9.603a43.051 43.051 0 016.14 2.9 42.867 42.867 0 015.688 3.706l3.616-6.475a33.7 33.7 0 00-5.661-3.757 33.653 33.653 0 00-6.168-2.849zm-1.6-.418zm5.641-6.817z" fill="#1d1d1b"/></g></g></g></svg>