<svg xmlns="http://www.w3.org/2000/svg" width="66.521" height="106.978"><g data-name="Group 28"><g data-name="Group 26"><g data-name="Group 24"><path data-name="Path 19" d="M53.873 38.431c-5.519-8.358-11.15-16.643-16.258-25.259l-6.918-11.67-6.919 11.671c-5.107 8.615-10.738 16.9-16.257 25.258A36.46 36.46 0 001.5 58.536a29.2 29.2 0 0029.2 29.2 29.2 29.2 0 0029.2-29.2 36.461 36.461 0 00-6.027-20.105z" fill="#f0efed"/><path data-name="Path 20" d="M30.697 89.231a30.732 30.732 0 01-30.7-30.7A37.868 37.868 0 016.266 37.6q1.484-2.247 2.974-4.489c4.459-6.719 9.071-13.669 13.245-20.709L29.404.733a1.5 1.5 0 011.29-.735 1.5 1.5 0 011.291.735l6.918 11.669c4.176 7.046 8.792 14 13.255 20.725q1.484 2.235 2.964 4.474a37.872 37.872 0 016.268 20.931 30.731 30.731 0 01-30.693 30.699zm0-84.79l-5.629 9.493c-4.212 7.106-8.845 14.087-13.325 20.838q-1.488 2.24-2.97 4.482A34.873 34.873 0 003 58.532a27.729 27.729 0 0027.7 27.7 27.728 27.728 0 0027.7-27.7 34.882 34.882 0 00-5.772-19.278q-1.474-2.235-2.959-4.467c-4.484-6.757-9.121-13.742-13.337-20.854z" fill="#1d1d1b"/></g><g data-name="Group 25"><path data-name="Path 21" d="M18.09 41.952a36.459 36.459 0 00-6.021 20.105" fill="#f0efed"/><path data-name="Path 22" d="M12.069 63.558a1.5 1.5 0 01-1.5-1.5 37.869 37.869 0 016.269-20.932 1.5 1.5 0 012.078-.427 1.5 1.5 0 01.426 2.078 34.884 34.884 0 00-5.773 19.28 1.5 1.5 0 01-1.5 1.501z" fill="#1d1d1b"/></g></g><g data-name="Group 27"><path data-name="Path 23" d="M63.229 80.013c-3.019-4.571-6.1-9.1-8.892-13.814l-3.784-6.383-3.783 6.383c-2.794 4.713-5.873 9.243-8.892 13.814a19.949 19.949 0 00-3.293 11 15.968 15.968 0 0015.968 15.968 15.968 15.968 0 0015.968-15.968 19.95 19.95 0 00-3.292-11z" fill="#1d1d1b"/></g></g></svg>