<svg xmlns="http://www.w3.org/2000/svg" width="141.816" height="112.034"><g data-name="Group 35"><g data-name="Group 13"><g data-name="Group 9" transform="translate(2669.5 -8217.5)"><ellipse data-name="Ellipse 4" cx="69.408" cy="54.517" rx="69.408" ry="54.517" transform="translate(-2668 8218.999)" fill="#f0efed"/><path data-name="Path 8" d="M-2598.593 8329.534c-39.1 0-70.907-25.129-70.907-56.018s31.809-56.017 70.907-56.017 70.909 25.129 70.909 56.017-31.809 56.018-70.909 56.018zm0-109.034c-37.444 0-67.907 23.783-67.907 53.017s30.463 53.018 67.907 53.018 67.909-23.783 67.909-53.018-30.464-53.017-67.909-53.017z" fill="#1d1d1b"/></g><g data-name="Group 10" transform="translate(2669.5 -8217.5)"><ellipse data-name="Ellipse 5" cx="38.716" cy="54.517" rx="38.716" ry="54.517" transform="translate(-2637.308 8218.999)" fill="#f0efed"/><path data-name="Path 9" d="M-2598.593 8329.534c-22.175 0-40.215-25.129-40.215-56.018s18.04-56.017 40.215-56.017 40.216 25.129 40.216 56.017-18.04 56.018-40.216 56.018zm0-109.034c-20.521 0-37.215 23.783-37.215 53.017s16.694 53.018 37.215 53.018 37.216-23.783 37.216-53.018-16.695-53.017-37.216-53.017z" fill="#1d1d1b"/></g><path data-name="Path 10" d="M19.776 93.736l-1.2-2.748c13.341-5.854 32.417-9.212 52.336-9.212s39 3.357 52.336 9.211l-1.2 2.748c-12.976-5.693-31.612-8.959-51.131-8.959s-38.166 3.266-51.141 8.96z" fill="#1d1d1b"/><path data-name="Path 11" d="M70.907 30.259c-19.917 0-38.992-3.357-52.335-9.212l1.205-2.748c12.977 5.694 31.613 8.96 51.13 8.96s38.154-3.266 51.131-8.96l1.2 2.748C109.9 26.9 90.824 30.259 70.907 30.259z" fill="#1d1d1b"/><g data-name="Group 11"><path data-name="Line 3" fill="#f0efed" d="M1.5 56.017h138.816"/><path data-name="Rectangle 2" fill="#1d1d1b" d="M1.5 54.518h138.816v3H1.5z"/></g><g data-name="Group 12"><path data-name="Line 4" fill="#f0efed" d="M70.907 1.499v109.035"/><path data-name="Rectangle 3" fill="#1d1d1b" d="M69.407 1.5h3v109.034h-3z"/></g></g></g></svg>