<svg width="144" height="114" fill="none" xmlns="http://www.w3.org/2000/svg"><path d="M72 112.651c39.022 0 70.655-24.916 70.655-55.651 0-30.735-31.633-55.651-70.655-55.651C32.978 1.349 1.345 26.265 1.345 57c0 30.735 31.633 55.651 70.655 55.651z" fill="#EFEEEC"/><path d="M72 114C32.293 114 0 88.43 0 57S32.293 0 72 0s72 25.57 72 57-32.302 57-72 57zM72 2.697C33.781 2.697 2.69 27.052 2.69 57c0 29.948 31.091 54.303 69.31 54.303S141.31 86.939 141.31 57c0-29.939-31.1-54.303-69.31-54.303z" fill="#000"/><path d="M72 112.651c21.766 0 39.411-24.916 39.411-55.651 0-30.735-17.645-55.651-39.411-55.651-21.766 0-39.411 24.916-39.411 55.651 0 30.735 17.645 55.651 39.411 55.651z" fill="#EFEEEC"/><path d="M72 114c-22.476 0-40.756-25.57-40.756-57S49.524 0 72 0s40.756 25.57 40.756 57S94.466 114 72 114zM72 2.697C51.003 2.697 33.934 27.052 33.934 57c0 29.948 17.078 54.303 38.066 54.303 20.988 0 38.066-24.364 38.066-54.303 0-29.939-17.078-54.303-38.066-54.303z" fill="#000"/><path d="M124.115 95.336c-13.233-5.826-32.23-9.162-52.124-9.162-19.894 0-38.891 3.336-52.124 9.162l-1.085-2.473c13.556-5.97 32.948-9.386 53.2-9.386 20.253 0 39.644 3.425 53.2 9.386l-1.067 2.473zM72 30.523c-20.252 0-39.644-3.425-53.2-9.386l1.085-2.473c13.233 5.826 32.23 9.162 52.124 9.162 19.894 0 38.891-3.336 52.124-9.162l1.085 2.473c-13.583 5.96-32.975 9.386-53.218 9.386zm70.646 25.128H1.345v2.698h141.301V55.65z" fill="#000"/><path d="M73.345 1.349h-2.69V112.65h2.69V1.349z" fill="#000"/></svg>