<svg width="128" height="173" fill="none" xmlns="http://www.w3.org/2000/svg"><path d="M111.481 66.181c0-26.402-21.215-47.822-47.438-47.963-26.177-.14-47.804 21.374-47.952 47.697-.054 10.574 3.293 20.35 9 28.3 9.52 13.252 15.322 28.831 17.224 45.066l.319 2.686h42.313l.31-2.686c1.934-16.5 8.224-32.087 17.675-45.714 5.389-7.762 8.549-17.203 8.549-27.386z" fill="#EFEEEC"/><path d="M84.947 143.138H42.626c-.59 0-1.087-.445-1.157-1.03l-.31-2.687c-1.903-16.281-7.79-31.681-17.007-44.518-6.088-8.473-9.28-18.5-9.218-28.995.148-26.996 22.039-48.861 48.86-48.861h.264c26.799.14 48.596 22.185 48.596 49.134 0 10.097-3.029 19.804-8.752 28.058-9.59 13.829-15.631 29.447-17.472 45.175l-.31 2.686a1.196 1.196 0 01-1.173 1.038zm-41.28-2.342h40.247l.194-1.656c1.887-16.11 8.069-32.102 17.876-46.244 5.452-7.864 8.333-17.102 8.333-26.723 0-25.66-20.757-46.65-46.274-46.791-25.665-.102-46.647 20.748-46.787 46.541-.054 9.988 2.982 19.538 8.775 27.605 9.45 13.158 15.484 28.932 17.433 45.612l.202 1.656z" fill="#000"/><path d="M42.626 140.702c0-3.553 9.474-6.435 21.16-6.435 11.687 0 21.161 2.882 21.161 6.435v5.505H42.626v-5.505z" fill="#EFEEEC"/><path d="M84.947 147.379H42.626a1.167 1.167 0 01-1.165-1.172v-5.505c0-4.998 11.229-7.606 22.325-7.606 11.097 0 22.326 2.616 22.326 7.606v5.505c0 .641-.52 1.172-1.165 1.172zm-41.156-2.343h39.984v-4.334c0-2.147-7.79-5.263-19.996-5.263-12.208 0-19.996 3.116-19.996 5.263v4.334h.008z" fill="#000"/><path d="M42.626 146.379c0-3.553 9.474-6.434 21.16-6.434 11.687 0 21.161 2.881 21.161 6.434v5.506H42.626v-5.506z" fill="#EFEEEC"/><path d="M84.947 153.056H42.626a1.166 1.166 0 01-1.165-1.171v-5.506c0-4.998 11.229-7.606 22.325-7.606 11.097 0 22.326 2.616 22.326 7.606v5.506c0 .648-.52 1.171-1.165 1.171zm-41.156-2.343h39.984v-4.334c0-2.147-7.79-5.263-19.996-5.263-12.208 0-19.996 3.116-19.996 5.263v4.334h.008z" fill="#000"/><path d="M42.626 152.056c0-3.553 9.474-6.434 21.16-6.434 11.687 0 21.161 2.881 21.161 6.434v5.506H42.626v-5.506z" fill="#EFEEEC"/><path d="M84.947 158.733H42.626a1.166 1.166 0 01-1.165-1.171v-5.506c0-4.997 11.229-7.606 22.325-7.606 11.097 0 22.326 2.616 22.326 7.606v5.506c0 .648-.52 1.171-1.165 1.171zm-41.156-2.343h39.984v-4.334c0-2.147-7.79-5.263-19.996-5.263-12.208 0-19.996 3.116-19.996 5.263v4.334h.008z" fill="#000"/><path d="M63.88 151.307c-11.687-.102-21.184 2.694-21.215 6.247l12.727 10.722 16.68.148 12.914-10.495c.023-3.553-9.427-6.521-21.106-6.622z" fill="#EFEEEC"/><path d="M72.064 169.587h-.007l-16.68-.148c-.272 0-.529-.101-.738-.273L41.91 158.444a1.19 1.19 0 01-.419-.906c.047-4.998 11.299-7.504 22.388-7.41 5.762.046 11.19.788 15.282 2.069 4.581 1.437 6.996 3.42 6.973 5.732 0 .351-.163.679-.435.898l-12.913 10.495c-.195.18-.45.265-.723.265zm-16.245-2.483l15.842.141 12.036-9.785c-.404-.835-1.926-1.983-5.226-3.022-3.883-1.218-9.07-1.913-14.607-1.96-11.353-.117-18.909 2.53-19.926 4.631l11.881 9.995z" fill="#000"/><path d="M72.074 168.414c.017-1.924-3.704-3.516-8.31-3.556-4.606-.041-8.353 1.486-8.37 3.409-.017 1.924 3.704 3.516 8.31 3.556 4.606.041 8.353-1.486 8.37-3.409z" fill="#EFEEEC"/><path d="M63.872 173h-.187c-4.72-.039-9.489-1.679-9.466-4.732.024-3.054 4.83-4.623 9.544-4.568 2.376.023 4.628.437 6.337 1.163 2.74 1.171 3.137 2.741 3.13 3.569-.024 3.014-4.699 4.568-9.358 4.568zm-.295-6.966c-4.349 0-7.012 1.445-7.02 2.249-.008.813 2.702 2.335 7.152 2.374 4.457.071 7.19-1.429 7.19-2.249 0-.32-.528-.89-1.708-1.397-1.413-.602-3.393-.961-5.443-.977h-.171zm-9.87-30.244a1.166 1.166 0 01-1.165-1.171v-21.787c0-.648.52-1.171 1.165-1.171s1.165.523 1.165 1.171v21.787c0 .648-.52 1.171-1.165 1.171zm20.167 0a1.166 1.166 0 01-1.165-1.171v-21.787c0-.648.52-1.171 1.165-1.171.644 0 1.165.523 1.165 1.171v21.787c0 .648-.529 1.171-1.165 1.171z" fill="#000"/><path d="M53.707 112.832l5.04 3.272 5.04-3.272 5.04 3.272 5.047-3.272" fill="#EFEEEC"/><path d="M58.747 117.275a1.14 1.14 0 01-.63-.187l-5.039-3.272 1.266-1.968 4.41 2.866 4.411-2.866c.389-.25.878-.25 1.266 0l4.41 2.866 4.412-2.866 1.265 1.968-5.04 3.272a1.16 1.16 0 01-1.265 0l-4.411-2.866-4.41 2.866a1.23 1.23 0 01-.645.187zm5.039-107.123a1.167 1.167 0 01-1.164-1.172V1.171c0-.648.52-1.171 1.164-1.171.645 0 1.165.523 1.165 1.171v7.81c0 .647-.52 1.17-1.164 1.17zM27.825 23.505c-.334 0-.66-.14-.893-.422l-4.993-5.981a1.178 1.178 0 01.14-1.648 1.162 1.162 0 011.638.14l4.993 5.982c.412.492.35 1.234-.14 1.648-.21.187-.481.281-.745.281zm91.6 74.857c-.194 0-.396-.047-.582-.156l-6.725-3.905a1.176 1.176 0 01-.427-1.6 1.162 1.162 0 011.592-.43l6.725 3.904c.559.32.745 1.039.427 1.601-.21.375-.606.586-1.01.586zM8.815 56.974c-.07 0-.132-.007-.202-.015l-7.648-1.36a1.17 1.17 0 01-.948-1.358 1.166 1.166 0 011.351-.953l7.65 1.36a1.173 1.173 0 01-.202 2.327zm110.37-.507a1.173 1.173 0 01-.202-2.327l7.649-1.36a1.164 1.164 0 011.351.954 1.175 1.175 0 01-.948 1.358l-7.648 1.36a1.646 1.646 0 01-.202.015zM8.916 98.807c-.404 0-.792-.21-1.01-.586a1.178 1.178 0 01.428-1.6l6.725-3.905a1.157 1.157 0 011.592.43 1.178 1.178 0 01-.427 1.6l-6.725 3.905a1.1 1.1 0 01-.583.156zM99.864 23.17c-.264 0-.528-.095-.745-.274a1.17 1.17 0 01-.14-1.648l4.993-5.982a1.156 1.156 0 011.639-.14c.489.414.559 1.156.14 1.648l-4.994 5.981a1.154 1.154 0 01-.893.414z" fill="#000"/></svg>