<svg width="155" height="132" fill="none" xmlns="http://www.w3.org/2000/svg"><path d="M77.495 130.656c31.927 0 57.81-25.801 57.81-57.63 0-31.827-25.883-57.629-57.81-57.629-31.927 0-57.81 25.802-57.81 57.63 0 31.828 25.883 57.629 57.81 57.629z" fill="#F0EFED"/><path d="M77.54 132a58.01 58.01 0 01-6.325-.34C38.779 128.211 15.21 99.092 18.67 66.766c3.46-32.326 32.67-55.82 65.097-52.381 32.436 3.449 56.003 32.568 52.544 64.894C133.085 109.5 107.37 132 77.54 132zm-.08-115.26c-28.465 0-53.012 21.47-56.094 50.313-3.307 30.856 19.192 58.641 50.145 61.937 30.953 3.297 58.825-19.132 62.132-49.989l1.338.143-1.338-.143c3.306-30.857-19.192-58.642-50.146-61.938a57.44 57.44 0 00-6.038-.322z" fill="#000"/><path d="M105.016 94.99c-9.55 0-19.695-.547-29.695-1.613C37.242 89.32-1.33 77.523.035 64.787c.746-6.978 12.705-10.328 22.607-11.914l.43 2.652c-12.318 1.97-19.928 5.535-20.36 9.539-.916 8.536 28.16 20.879 72.896 25.635 44.737 4.756 75.762-1.182 76.678-9.718.432-4.004-6.253-9.1-17.871-13.615l.98-2.5c9.344 3.638 20.315 9.433 19.569 16.401-1.006 9.396-23.136 13.723-49.948 13.723zm17.018-40.8c14.639 0 26.506-11.83 26.506-26.423 0-14.593-11.867-26.423-26.506-26.423s-26.506 11.83-26.506 26.423c0 14.593 11.867 26.423 26.506 26.423z" fill="#000"/><path d="M122.034 55.534c-15.356 0-27.854-12.46-27.854-27.767C94.18 12.459 106.678 0 122.034 0c15.355 0 27.853 12.46 27.853 27.767 0 15.307-12.498 27.767-27.853 27.767zm0-52.847c-13.873 0-25.158 11.25-25.158 25.08 0 13.83 11.285 25.08 25.158 25.08 13.873 0 25.158-11.25 25.158-25.08 0-13.83-11.285-25.08-25.158-25.08z" fill="#000"/><path d="M107.406 27.767c0-11.286 7.098-20.915 17.09-24.704.844-.322.674-1.55-.234-1.63a26.36 26.36 0 00-2.237-.098c-14.637 0-26.506 11.832-26.506 26.423 0 14.59 11.869 26.423 26.506 26.423.755 0 1.5-.036 2.237-.098.908-.081 1.078-1.308.234-1.63-9.983-3.771-17.09-13.4-17.09-24.686z" fill="#F0EFED"/><path d="M122.034 55.534c-15.356 0-27.854-12.46-27.854-27.767C94.18 12.459 106.678 0 122.034 0c.782 0 1.572.036 2.354.099 1.033.09 1.851.86 1.995 1.88a2.178 2.178 0 01-1.402 2.347c-9.704 3.673-16.227 13.096-16.227 23.44 0 10.346 6.523 19.769 16.227 23.441a2.188 2.188 0 011.402 2.347 2.188 2.188 0 01-1.995 1.881c-.782.063-1.581.099-2.354.099zm1.995-1.81h.009-.009zm-2.058-51.037c-13.846.036-25.095 11.277-25.095 25.08 0 13.803 11.249 25.044 25.095 25.08-9.596-4.56-15.904-14.377-15.904-25.08 0-10.704 6.299-20.52 15.904-25.08z" fill="#000"/></svg>