<svg xmlns="http://www.w3.org/2000/svg" width="152.295" height="130.152"><g data-name="Group 23"><g data-name="Group 18"><g data-name="Group 17"><g data-name="Group 16"><g data-name="Group 15" transform="translate(2576.238 -8335.494)"><circle data-name="Ellipse 6" cx="56.665" cy="56.665" r="56.665" transform="translate(-2556.754 8350.814)" fill="#f0efed"/><path data-name="Path 13" d="M-2500.046 8465.646a58.354 58.354 0 01-6.217-.332 57.785 57.785 0 01-39.088-21.3 57.785 57.785 0 01-12.575-42.705 57.781 57.781 0 0121.3-39.087 57.794 57.794 0 0142.7-12.575 58.231 58.231 0 0151.663 64.01 58.249 58.249 0 01-57.783 51.989zm-.15-113.34a54.742 54.742 0 00-34.541 12.245 54.8 54.8 0 00-20.206 37.072 54.807 54.807 0 0011.926 40.5 54.814 54.814 0 0037.072 20.206 55.656 55.656 0 005.9.314 55.241 55.241 0 0054.812-49.312 55.227 55.227 0 00-49-60.708 56.138 56.138 0 00-5.967-.316z" fill="#1d1d1b"/></g><path data-name="Path 14" d="M103.562 93.815a280.7 280.7 0 01-29.568-1.644c-20.05-2.14-38.708-6.114-52.537-11.191C11.251 77.234-.749 71.224.037 63.862c.744-6.971 12.541-10.306 22.307-11.878l.476 2.964c-11.987 1.928-19.388 5.379-19.8 9.232-.439 4.12 6.839 9.348 19.47 13.984 13.6 4.994 32.009 8.909 51.822 11.023s38.628 2.17 52.981.163c13.325-1.867 21.543-5.44 21.983-9.561.411-3.854-6.095-8.79-17.405-13.2l1.091-2.795c9.214 3.6 20.041 9.345 19.3 16.315-.786 7.363-13.784 10.705-24.55 12.214a176.965 176.965 0 01-24.15 1.492z" fill="#1d1d1b"/></g></g></g><g data-name="Group 22"><g data-name="Group 19" fill="#1d1d1b" transform="translate(2576.238 -8335.494)"><circle data-name="Ellipse 7" cx="25.983" cy="25.983" r="25.983" transform="translate(-2482.418 8336.994)"/><path data-name="Path 15" d="M-2456.435 8390.46a27.514 27.514 0 01-27.483-27.483 27.514 27.514 0 0127.483-27.482 27.514 27.514 0 0127.483 27.482 27.514 27.514 0 01-27.483 27.483zm0-51.966a24.51 24.51 0 00-24.483 24.482 24.511 24.511 0 0024.483 24.483 24.511 24.511 0 0024.483-24.483 24.51 24.51 0 00-24.483-24.482z"/></g><g data-name="Group 21"><g data-name="Group 20"><path data-name="Path 16" d="M105.468 27.483a25.982 25.982 0 0116.756-24.287.828.828 0 00-.226-1.6q-1.084-.092-2.2-.094a25.983 25.983 0 00-25.983 25.982 25.983 25.983 0 0025.983 25.983q1.11 0 2.2-.094a.827.827 0 00.226-1.6 25.982 25.982 0 01-16.756-24.29z" fill="#f0efed"/><path data-name="Path 17" d="M119.803 54.966A27.514 27.514 0 0192.32 27.483 27.514 27.514 0 01119.803.001c.768 0 1.549.033 2.322.1a2.32 2.32 0 012.116 2 2.318 2.318 0 01-1.486 2.5 24.616 24.616 0 00-15.787 22.886 24.612 24.612 0 0015.789 22.887 2.32 2.32 0 011.485 2.5 2.324 2.324 0 01-2.116 2c-.761.059-1.543.092-2.323.092zm1.888-1.792zm-2.748-50.159A24.511 24.511 0 0095.32 27.483a24.512 24.512 0 0023.623 24.469 27.655 27.655 0 01-14.975-24.469 27.656 27.656 0 0114.975-24.468z" fill="#1d1d1b"/></g></g></g></g></svg>