<svg width="127" height="239" fill="none" xmlns="http://www.w3.org/2000/svg"><path d="M69.584 5.439H57.407v228.104c0 2.266 2.725 4.1 6.093 4.1 3.359 0 6.093-1.834 6.093-4.1V5.439h-.01z" fill="#EFEEEC"/><path d="M63.5 239c-3.761 0-6.79-1.951-7.334-4.576l-.09-.045V4.099h14.857v230.289l-.09.045C70.29 237.049 67.261 239 63.5 239zm-4.753-5.394c.054 1.286 1.984 2.697 4.744 2.697s4.7-1.411 4.744-2.697l-.01-.944.01-.009V6.796h-9.488v225.857h.01l-.01.953z" fill="#000"/><path d="M63.5 9.538c3.365 0 6.093-1.831 6.093-4.09 0-2.26-2.728-4.09-6.093-4.09-3.365 0-6.093 1.83-6.093 4.09 0 2.259 2.728 4.09 6.093 4.09z" fill="#EFEEEC"/><path d="M63.5 10.886c-4.163 0-7.433-2.39-7.433-5.438C56.067 2.39 59.328 0 63.5 0s7.433 2.391 7.433 5.448c-.01 3.047-3.27 5.438-7.433 5.438zm0-8.19c-2.796 0-4.753 1.448-4.753 2.752 0 1.303 1.948 2.742 4.753 2.742s4.753-1.448 4.753-2.742c0-1.295-1.957-2.751-4.753-2.751z" fill="#000"/><path d="M125.66 28.39H1.34v125.1h124.32V28.39z" fill="#EFEEEC"/><path d="M125.66 154.83H1.34c-.741 0-1.34-.603-1.34-1.349V28.39c0-.747.599-1.349 1.34-1.349h124.32c.741 0 1.34.602 1.34 1.349v125.1c0 .737-.607 1.34-1.34 1.34zM2.68 152.133h121.64V29.738H2.68v122.395z" fill="#000"/><path d="M63.5 128.481c20.609 0 37.316-16.812 37.316-37.55 0-20.739-16.707-37.55-37.316-37.55S26.184 70.192 26.184 90.93s16.707 37.55 37.316 37.55z" fill="#EFEEEC"/><path d="M63.5 129.829c-21.316 0-38.656-17.449-38.656-38.898 0-21.45 17.34-38.899 38.656-38.899s38.656 17.45 38.656 38.899-17.34 38.898-38.656 38.898zm0-75.1c-19.842 0-35.976 16.245-35.976 36.202 0 19.957 16.143 36.201 35.976 36.201s35.976-16.244 35.976-36.201S83.333 54.729 63.5 54.729z" fill="#000"/><path d="M79.491 57.049l-5.467 3.254-9.291-2.877-8.264 4.513 1.18 3.713 7.227-1.043 3.1-2.868 3.028 2.266-1.43 3.119-17.92 1.16-.697 2.13 1.394 1.762-6.129 4.252 7.674 3.371 6.102-6.688 5.914-1.798.938 3.839 1.992.135 2.841-5.241 2.787.458 1.01 3.74-4.011 1.834 3.966 4.486-3.529 2.31-5.985.89-8.514-2.553-4.868 1.456L41.8 89.403v11.138h4.047l9.872-3.596 3.475-1.025 2.358 1.672-.902 8.441 4.923 11.507.34 3.192h2.804l7.21-10.482 5.976-12.658 2.198-3.128-5.539-1.439-4.27-8.648 1.858-.467 4.931 7.048L84.091 92l5.075-5.134-4.52-2.346-3.1.297 1.18-3.263 6.44.575 7.907 8.828 3.662-2.445c0-.027-1.608-22.547-21.244-31.464z" fill="#000"/></svg>