<svg width="114" height="187" fill="none" xmlns="http://www.w3.org/2000/svg"><path d="M111.182 25.203l1.455-6.511c.402-1.8-15.92-7.004-36.454-11.626C55.647 2.444 38.683.16 38.282 1.952l-1.456 6.511" fill="#EFEEEC"/><path d="M112.494 25.499l-2.616-.591 1.34-5.992c-2.179-1.622-14.991-5.957-35.321-10.533-20.339-4.577-33.758-6.145-36.428-5.616l-1.34 5.992-2.615-.591 1.455-6.503C37.291.223 38.442-.762 49.862.778c7.196.968 16.651 2.741 26.615 4.99 9.964 2.238 19.268 4.693 26.187 6.905 10.973 3.502 11.598 4.881 11.277 6.323l-1.447 6.503z" fill="#000"/><path d="M111.179 25.203c.402-1.795-15.92-6.997-36.453-11.619C54.192 8.963 37.22 6.672 36.818 8.467c-.401 1.795 15.92 6.997 36.454 11.619s37.506 6.913 37.907 5.117z" fill="#000"/><path d="M108.343 27.165c-1.893 0-4.661-.224-8.741-.78-7.197-.967-16.652-2.74-26.616-4.988-9.973-2.248-19.267-4.694-26.187-6.906-10.982-3.493-11.607-4.881-11.276-6.323.321-1.442 1.473-2.428 12.892-.887 7.197.967 16.652 2.74 26.616 4.989 9.964 2.239 19.267 4.693 26.187 6.905 10.973 3.503 11.598 4.882 11.276 6.324-.205.923-.759 1.666-4.151 1.666zM40.023 9.18c4.562 2.033 16.374 5.723 33.553 9.592 17.178 3.87 29.428 5.59 34.418 5.706-4.562-2.033-16.374-5.724-33.552-9.593-17.179-3.86-29.428-5.58-34.42-5.705z" fill="#000"/><path d="M61.45 94.099l23.197-14.743c15.857-10.077 20.562-31.134 10.517-47.041C85.13 16.408 64.13 11.688 48.281 21.755c-15.856 10.076-20.57 31.143-10.526 47.04l14.696 23.28-23.205 14.742C13.39 116.893 8.684 137.951 18.73 153.858c10.044 15.907 31.035 20.627 46.891 10.551 15.857-10.077 20.562-31.134 10.518-47.041l-14.687-23.27z" fill="#EFEEEC"/><path d="M47.496 171.037c-11.714 0-23.178-5.822-29.893-16.463-10.419-16.507-5.517-38.442 10.938-48.894l22.07-14.027-13.99-22.132c-5.045-7.998-6.687-17.483-4.625-26.718 2.063-9.234 7.59-17.107 15.562-22.176 7.973-5.07 17.428-6.718 26.634-4.64 9.205 2.069 17.053 7.613 22.106 15.611 5.045 7.999 6.688 17.484 4.625 26.718-2.062 9.235-7.589 17.108-15.562 22.177L63.291 94.52l13.98 22.141c5.045 7.999 6.697 17.484 4.626 26.718-2.063 9.235-7.59 17.108-15.562 22.177a35.092 35.092 0 01-18.84 5.482zm18.901-153.24c-6.116 0-12.116 1.728-17.401 5.095-7.366 4.685-12.473 11.958-14.384 20.494-1.91 8.535-.393 17.304 4.277 24.693l15.41 24.407-24.33 15.46c-15.205 9.664-19.74 29.933-10.107 45.186 9.634 15.254 29.839 19.804 45.044 10.139 15.205-9.664 19.74-29.933 10.107-45.186l-15.41-24.407 24.33-15.46c15.204-9.664 19.74-29.933 10.106-45.187-4.67-7.389-11.919-12.512-20.428-14.429a32.987 32.987 0 00-7.214-.806z" fill="#000"/><path d="M35.51 8.17L1.587 159.938l2.614.588L38.124 8.757l-2.614-.588zm74.352 16.73L75.955 176.67l2.613.587 33.908-151.77-2.614-.587z" fill="#000"/><path d="M75.718 183.755l1.456-6.511c.401-1.801-15.92-7.004-36.455-11.626-20.535-4.622-37.508-6.915-37.91-5.114l-1.455 6.511" fill="#EFEEEC"/><path d="M77.03 184.051l-2.615-.591 1.34-5.992c-2.18-1.621-14.983-5.957-35.322-10.533-20.338-4.577-33.758-6.145-36.419-5.616l-1.339 5.992-2.616-.591 1.456-6.512c.321-1.442 1.473-2.427 12.892-.887 7.196.968 16.652 2.741 26.616 4.989 9.964 2.248 19.267 4.694 26.187 6.906 10.973 3.502 11.598 4.881 11.276 6.323l-1.455 6.512z" fill="#000"/><path d="M75.717 183.749c.402-1.795-15.919-6.997-36.453-11.619-20.534-4.621-37.506-6.912-37.907-5.117-.402 1.796 15.919 6.998 36.453 11.619 20.534 4.622 37.506 6.913 37.907 5.117z" fill="#EFEEEC"/><path d="M72.87 185.717c-1.893 0-4.651-.224-8.732-.779-7.196-.968-16.651-2.741-26.615-4.989-9.964-2.239-19.268-4.694-26.187-6.906C.363 169.541-.262 168.162.059 166.72c.322-1.442 1.482-2.428 12.893-.887 7.196.967 16.651 2.741 26.615 4.989 9.964 2.248 19.268 4.693 26.187 6.905 10.973 3.503 11.598 4.882 11.277 6.324-.214.922-.76 1.666-4.16 1.666zM4.56 167.732c4.562 2.033 16.374 5.723 33.552 9.592 17.178 3.87 29.428 5.589 34.419 5.706-4.563-2.033-16.375-5.724-33.553-9.593-17.178-3.869-29.428-5.58-34.419-5.705zm31.704-102.85c4.437-2.723 10.151-1.586 15.098.035 7.723 2.526 15.142 6.028 23.035 7.972 4.723 1.164 10.107 2.615 14.973 2.624l-28.044 17.68c-.58.368-1.16.735-1.813.941-1.553.51-3.303.054-4.67-.86-1.365-.913-2.41-2.212-3.374-3.537-2.143-2.93-4.027-6.046-5.91-9.154-2.777-4.595-5.563-9.19-8.34-13.776M13.97 127.176c3.392-1.926 7.607-1.657 11.401-.726 3.795.932 7.447 2.463 11.321 2.92 2.474.287 4.974.125 7.456-.036 3.687-.242 7.374-.474 11.053-.707 2.687-.17 5.393-.341 8.053.036 2.599.376 5.116 1.271 7.723 1.495 1.884.162 3.795-.027 5.643.323 1.857.358 3.741 1.433 4.33 3.233.286.887.233 1.836.179 2.768-.304 5.033-1.054 10.13-3.58 14.492-2.134 3.699-5.197 8.428-7.51 8.93-1.428.304-1.981 1.477-3.133 2.391-.821.654-1.795 1.075-2.741 1.523-4.384 2.104-8.214 4.46-12.74 4.371-2.474-.054-5.108-1.362-7.492-2.007l-15.839-4.299c-1.964-.537-3.99-1.093-5.58-2.374-1.205-.967-2.08-2.275-2.857-3.609-4.893-8.294-6.99-18.218-5.875-27.802" fill="#000"/><path d="M58.29 93.086h-2.678v36.938h2.678V93.086z" fill="#000"/><path d="M51.46 89.737s5.482 6.17 5.482 13.166c0 0 0-7.318 8.268-11.205" fill="#000"/><path d="M58.29 102.912l-2.678-.009c0-6.386-5.099-12.217-5.152-12.28l2-1.791c.17.197 3.178 3.619 4.803 8.33 1.26-2.302 3.483-4.846 7.384-6.682l1.134 2.436c-7.34 3.458-7.49 9.727-7.49 9.996z" fill="#000"/></svg>