<svg width="91" height="158" fill="none" xmlns="http://www.w3.org/2000/svg"><path d="M78.806 56.197C70.64 43.783 62.31 31.476 54.76 18.684L44.525 1.347 34.29 18.684c-7.55 12.792-15.88 25.099-24.047 37.513-5.931 9.028-8.901 19.439-8.901 29.86 0 23.947 19.332 43.359 43.183 43.359 23.85 0 43.183-19.412 43.183-43.36 0-10.42-2.961-20.831-8.902-29.86z" fill="#EFEEEC"/><path d="M44.525 130.764C19.977 130.764 0 110.705 0 86.056c0-10.941 3.158-21.523 9.125-30.605 1.458-2.218 2.925-4.437 4.384-6.647 6.602-9.998 13.437-20.328 19.627-30.811L43.371.656A1.346 1.346 0 0144.525 0c.474 0 .912.252 1.154.656l10.234 17.337c6.191 10.483 13.026 20.822 19.637 30.82 1.458 2.21 2.925 4.42 4.384 6.638 5.967 9.082 9.125 19.664 9.125 30.605-.01 24.649-19.977 44.708-44.534 44.708zm0-126.776l-9.08 15.38c-6.227 10.536-13.07 20.902-19.7 30.927-1.467 2.21-2.925 4.429-4.383 6.648-5.672 8.632-8.678 18.702-8.678 29.113 0 23.167 18.769 42.013 41.84 42.013 23.073 0 41.842-18.846 41.842-42.013 0-10.411-3.006-20.48-8.687-29.122l-4.374-6.63c-6.63-10.025-13.482-20.391-19.709-30.937L44.525 3.988z" fill="#000"/><path d="M86.133 117.954c-4.464-6.791-9.017-13.519-13.15-20.517l-5.6-9.477-5.601 9.477c-4.133 6.998-8.687 13.726-13.15 20.517a29.711 29.711 0 00-4.867 16.331c0 13.097 10.574 23.715 23.617 23.715C80.426 158 91 147.382 91 134.285c0-5.695-1.62-11.39-4.867-16.331z" fill="#000"/></svg>