<svg xmlns="http://www.w3.org/2000/svg" width="732.96" height="194.4"><path data-name="Path 33" d="M86.97 36.3a10.925 10.925 0 008.16-3.12 10.407 10.407 0 002.88-6.78h-3.54c-.42 3.9-3 6.84-7.5 6.84-5.46 0-8.64-4.56-8.64-10.8 0-6.18 2.94-10.98 8.76-10.98 3.9 0 6.36 2.16 6.96 5.4h3.66c-.84-4.98-4.62-8.52-10.62-8.52-7.8 0-12.48 6-12.48 14.1S79.59 36.3 86.97 36.3zm-.12 6.36c-11.1 0-19.32-8.58-19.32-20.22S75.75 2.16 86.85 2.16s19.32 8.64 19.32 20.28-8.22 20.22-19.32 20.22zm0 2.1c12.3 0 21.9-9.48 21.9-22.32S99.15.06 86.85.06s-21.9 9.54-21.9 22.38 9.6 22.32 21.9 22.32zm52.62-1.02h4.02V4.44h14.46V.84h-33v3.6h14.52zm25.26 0h4.02v-21h24.3v21h4.02V.84h-4.02v18.54h-24.3V.84h-4.02zm41.82 0h29.82v-3.72h-25.8V23.28h23.04V19.8h-23.04V4.38h25.14V.84h-29.16zm48.66 0h4.02V.84h-4.02zm13.74 0h3.84V6.72h.12s2.52 4.26 4.5 7.26l19.68 29.76h4.2V.84h-3.84v37.2h-.12s-2.1-3.84-4.26-7.08L273.33.84h-4.38zm53.82 0h4.38L342.69.84h-4.08l-11.16 31.5c-.96 2.64-2.34 7.26-2.34 7.26h-.12s-1.32-4.44-2.28-7.08L311.61.84h-4.2zm26.04 0h29.82v-3.72h-25.8V23.28h23.04V19.8h-23.04V4.38h25.14V.84h-29.16zm51.96.78c9 0 15.12-4.92 15.12-12.54 0-9-6.9-11.04-15.24-12.66-7.68-1.44-11.64-3-11.64-8.1 0-4.74 3.96-7.86 10.5-7.86 6.12 0 10.44 3.12 11.16 9.18h3.9C413.79 5.16 408.99 0 399.45 0c-8.58 0-14.34 4.5-14.34 11.34 0 7.5 5.58 9.9 13.5 11.46 9.18 1.86 13.2 3.3 13.2 9.36 0 5.82-4.68 9-10.98 9-8.04 0-12.96-4.08-13.38-11.34h-4.02c.48 8.34 6.06 14.7 17.34 14.7zm32.28-.78h4.02V4.44h14.46V.84h-33v3.6h14.52zm25.44 0h4.02V.84h-4.02zm31.74.84a16.074 16.074 0 0014.34-7.68h.18l.84 6.84h2.82V21.72h-17.76v3.54h13.8v1.5c0 7.44-4.26 14.28-14.16 14.28-10.2 0-15.54-8.16-15.54-18.72 0-10.38 5.04-18.84 16.08-18.84 6.54 0 11.46 3.36 12.78 9.78h4.14C506.19 4.56 499.65 0 490.83 0c-13.02 0-20.28 9.66-20.28 22.32 0 12.84 7.14 22.26 19.68 22.26zm23.76-.84h4.08l5.04-13.5h18.66l4.98 13.5h4.32L534.75.84h-4.56zm10.32-16.8l6-16.02c.96-2.58 2.1-6.24 2.1-6.24h.12s1.26 3.84 2.16 6.24l5.88 16.02zm39.6 16.8h4.02V4.44h14.46V.84h-33v3.6h14.52zm25.44 0h4.02V.84h-4.02zm25.74 0h4.38L635.01.84h-4.08l-11.16 31.5c-.96 2.64-2.34 7.26-2.34 7.26h-.12s-1.32-4.44-2.28-7.08L603.93.84h-4.2zm26.04 0h29.82v-3.72h-25.8V23.28h23.04V19.8h-23.04V4.38h25.14V.84h-29.16zm-626.61 75h4.02v-39.3H33v-3.6H0v3.6h14.52zm40.5-2.76c-10.26 0-15.72-8.34-15.72-18.72s5.46-18.72 15.72-18.72c10.32 0 15.84 8.34 15.84 18.72s-5.52 18.72-15.84 18.72zm0 3.6c12.18 0 20.04-9.54 20.04-22.32S67.2 74.94 55.02 74.94c-12.12 0-19.92 9.54-19.92 22.32s7.8 22.32 19.92 22.32zm27.84-.84h4.02v-18.66h12.3c9 0 13.62-4.32 13.62-12.24a11.553 11.553 0 00-3-8.28c-2.28-2.4-5.4-3.72-10.08-3.72H82.86zm4.02-22.08V79.38h12.36c6.18 0 9.48 3.06 9.48 8.58 0 5.4-2.88 8.7-9.84 8.7zM120 118.74h4.02v-42.9H120zm31.38.78c5.46 0 9.96-1.8 12.96-5.16a18.577 18.577 0 004.44-11.22h-3.9c-.66 7.08-5.16 12.84-13.44 12.84-9.84 0-15.18-7.92-15.18-18.66 0-10.56 5.16-18.9 15.24-18.9 7.02 0 11.46 3.96 12.6 9.54h3.96c-1.44-7.98-7.44-13.02-16.5-13.02-12.12 0-19.5 9.42-19.5 22.38 0 13.14 7.38 22.2 19.32 22.2zm39.66 0c9 0 15.12-4.92 15.12-12.54 0-9-6.9-11.04-15.24-12.66-7.68-1.44-11.64-3-11.64-8.1 0-4.74 3.96-7.86 10.5-7.86 6.12 0 10.44 3.12 11.16 9.18h3.9c-.78-7.38-5.58-12.54-15.12-12.54-8.58 0-14.34 4.5-14.34 11.34 0 7.5 5.58 9.9 13.5 11.46 9.18 1.86 13.2 3.3 13.2 9.36 0 5.82-4.68 9-10.98 9-8.04 0-12.96-4.08-13.38-11.34h-4.02c.48 8.34 6.06 14.7 17.34 14.7zm51.9-3.54c-10.26 0-15.72-8.34-15.72-18.72s5.46-18.72 15.72-18.72c10.32 0 15.84 8.34 15.84 18.72s-5.52 18.72-15.84 18.72zm0 3.6c12.18 0 20.04-9.54 20.04-22.32s-7.86-22.32-20.04-22.32c-12.12 0-19.92 9.54-19.92 22.32s7.8 22.32 19.92 22.32zm27.84-.84h4.02V98.1h20.4v-3.48h-20.4V79.38h23.94v-3.54h-27.96zm45.96 0h26.88v-3.72h-22.86V75.84h-4.02zm34.14 0h4.02v-42.9h-4.02zm13.74 0h4.02V98.1h20.4v-3.48h-20.4V79.38h23.94v-3.54h-27.96zm35.16 0h29.82v-3.72h-25.8V98.28h23.04V94.8H403.8V79.38h25.14v-3.54h-29.16zm66.72-2.76c-10.26 0-15.72-8.34-15.72-18.72s5.46-18.72 15.72-18.72c10.32 0 15.84 8.34 15.84 18.72s-5.52 18.72-15.84 18.72zm0 3.6c12.18 0 20.04-9.54 20.04-22.32s-7.86-22.32-20.04-22.32c-12.12 0-19.92 9.54-19.92 22.32s7.8 22.32 19.92 22.32zm27.84-.84h3.84V81.72h.12s2.52 4.26 4.5 7.26l19.68 29.76h4.2v-42.9h-3.84v37.2h-.12s-2.1-3.84-4.26-7.08l-19.74-30.12h-4.38zm52.62 0h29.82v-3.72h-25.8V98.28h23.04V94.8h-23.04V79.38h25.14v-3.54h-29.16zm34.62 0h4.08l5.04-13.5h18.66l4.98 13.5h4.32l-16.32-42.9h-4.56zm10.32-16.8l6-16.02c.96-2.58 2.1-6.24 2.1-6.24h.12s1.26 3.84 2.16 6.24l5.88 16.02zm32.88 16.8h4.02V99.6h13.08c6.24 0 8.82 2.1 9.18 9.54.36 7.32.6 8.94 1.56 9.6h4.32v-.24c-.78-.54-1.56-2.28-1.86-9.18-.3-6.66-1.74-9.9-6.18-11.4v-.18c4.92-1.56 7.2-5.04 7.2-10.32 0-7.14-4.44-11.58-12.18-11.58h-19.14zm4.02-22.56v-16.8h14.28c6.48 0 8.88 3.06 8.88 8.4s-3.18 8.4-9.42 8.4zm46.56 22.56h4.02v-39.3h14.46v-3.6h-33v3.6h14.52zm25.26 0h4.02v-21h24.3v21h4.02v-42.9h-4.02v18.54h-24.3V75.84h-4.02zm-527.1 64.2c-.96 0-1.14.96-2.1 2.58-2.22 3.72-5.58 6.42-10.56 6.42-8.7 0-16.02-8.1-16.02-19.92 0-11.46 7.02-19.38 15.6-19.38a10.876 10.876 0 018.34 3.42c2.34 2.4 2.52 5.46 4.14 5.46.72 0 1.26-.3 1.26-2.94 0-4.02-.36-5.34-3-6.54a25.517 25.517 0 00-9.66-1.86 21.7 21.7 0 00-13.26 4.56 21.93 21.93 0 00-8.52 17.7c0 11.34 7.2 21.96 21.9 21.96a24.035 24.035 0 009.6-1.8c2.64-1.26 3.66-3.3 3.66-6.9 0-2.04-.24-2.76-1.38-2.76zm30.3-30.42c10.2 0 16.44 9.96 16.44 20.7 0 10.38-6.12 18.72-15.96 18.72-10.02 0-16.38-9.66-16.38-20.76 0-11.46 7.14-18.66 15.9-18.66zm21.48 19.56c0-6.24-1.68-11.46-5.34-15.48-3.6-4.02-9-6.42-15.84-6.42-12.48 0-21.3 10.68-21.3 22.56 0 6.3 1.62 10.92 4.68 14.64 3.66 4.38 9.3 7.02 16.62 7.02 12.24 0 21.18-10.14 21.18-22.32zm52.92 19.56a5.437 5.437 0 01-1.74-1.5c-.54-.9-.78-1.92-.78-6.12v-24.18c0-4.74.24-5.76 1.44-6.54.9-.6 1.8-.72 1.8-1.5-.06-.72-.6-.9-1.5-.9h-5.82a1.371 1.371 0 00-1.44.96l-13.32 28.68c-.12.24-.18.36-.3.36s-.18-.12-.3-.36l-13.2-28.68a1.607 1.607 0 00-1.68-.96h-6.66c-.96 0-1.44.42-1.44.96 0 .9.9 1.08 1.92 1.5a4.634 4.634 0 011.62.96 1.4 1.4 0 01.42 1.08v22.98c0 8.34-.72 10.8-2.52 12.36-.84.78-1.92 1.02-1.92 1.92 0 .6.42 1.08 1.68 1.08h9.42c.84 0 1.44-.36 1.44-1.02 0-.54-.3-.9-1.08-1.2-2.58-.9-3.96-2.64-4.2-7.62-.18-3.06-.24-21.78-.24-27.06a.22.22 0 01.24-.24c.12 0 .18.06.24.18l13.5 29.34a.913.913 0 001.02.66h1.14c.54 0 .72-.06 1.02-.66l13.56-29.28c.06-.12.12-.24.3-.24a.22.22 0 01.24.24v22.38c0 9-.3 10.02-.78 10.92a5.709 5.709 0 01-1.8 1.5c-.42.3-1.02.54-1.02 1.08 0 .78.72 1.02 1.74 1.02h8.34c1.02 0 1.68-.18 1.68-.96 0-.6-.54-.84-1.02-1.14zm21.12 0a4.617 4.617 0 01-1.8-1.5c-.48-.84-.78-1.86-.78-6.06v-24.12c0-4.8.24-5.82 1.5-6.6.9-.6 1.8-.72 1.8-1.5 0-.72-.66-.96-1.56-.96h-8.1c-.96 0-1.5.24-1.5.96 0 .78.84.9 1.8 1.5 1.2.78 1.44 1.8 1.44 6.6v24.12c0 4.2-.24 5.22-.78 6.06a4.726 4.726 0 01-1.74 1.5c-.6.3-1.02.54-1.02 1.14 0 .72.66.96 1.68.96h8.34c1.02 0 1.68-.24 1.68-.96 0-.6-.48-.9-.96-1.14zM348 150.9h-8.82c-1.14 0-1.8.3-1.8 1.08s.84.96 1.56 1.2c1.86.66 2.94 2.22 3.18 7.26.18 3.72.18 18.36.18 24.96a.22.22 0 01-.24.24c-.12 0-.24-.12-.36-.3l-24.3-33.72a1.788 1.788 0 00-1.68-.72h-4.98c-.84 0-1.68.18-1.68 1.08 0 .96 1.14.96 2.4 1.38a4.8 4.8 0 011.92 1.2 1.01 1.01 0 01.36.84c0 1.38-.12 25.2-.3 28.5-.24 5.16-1.62 6.84-3.3 7.56-.6.3-1.38.54-1.44 1.26 0 .54.36 1.02 1.62 1.02h10.02c.84 0 1.5-.36 1.5-1.02 0-.48-.3-.84-1.08-1.14-2.58-.9-3.9-2.7-4.26-7.68-.18-3.06-.18-19.86-.18-25.14 0-.18.06-.3.24-.3.06 0 .12 0 .24.18l25.26 34.98c.24.3.42.6.84.6h1.2a.709.709 0 00.78-.72v-8.58c0-8.88 0-21.78.18-24.48.36-5.64 1.62-6.66 3.06-7.26.72-.3 1.56-.54 1.56-1.32s-.6-.96-1.68-.96zm45.3 22.68H384c-.9 0-1.44.3-1.44.96 0 .9 1.08 1.08 2.04 1.44 2.16.78 2.28 1.62 2.28 6.66v6.24a1.67 1.67 0 01-1.14 1.86 17 17 0 01-6.24 1.2c-10.32 0-17.58-9.24-17.58-20.7 0-10.5 6.42-18.6 16.02-18.6 4.92 0 7.5 2.22 9.18 4.86 1.5 2.34 1.56 4.02 2.94 4.02.78 0 1.32-.3 1.32-2.76 0-3.84-.54-5.52-2.88-6.66a23.745 23.745 0 00-9.84-1.92c-12.54.06-21.78 9.54-21.78 22.26 0 12 8.58 21.96 21.78 21.96a22.566 22.566 0 0011.88-3.12 2.247 2.247 0 00.9-2.16v-6.48c0-4.8.3-5.82 1.5-6.6.96-.6 1.8-.66 1.8-1.5 0-.66-.54-.96-1.44-.96zm49.68-20.34c-1.5-1.8-5.52-3.06-9.66-3.06-7.98 0-13.98 5.22-13.98 11.88a9.525 9.525 0 002.58 6.66c4.56 4.74 12.42 4.56 17.04 7.8a7.316 7.316 0 013.24 6.36c0 4.98-4.02 8.82-9.84 8.82-5.64 0-8.76-4.02-10.32-6.3-.96-1.44-1.62-3-2.16-3.66a1.272 1.272 0 00-1.08-.6c-.66 0-1.26.42-1.26 1.5a19.509 19.509 0 00.12 1.98 12.079 12.079 0 001.08 5.04c1.68 3 6.72 4.74 12.06 4.74a15.265 15.265 0 0010.56-3.66 13 13 0 004.86-9.9 9.888 9.888 0 00-5.04-8.94c-5.22-3.24-11.88-3.6-15.18-6.42a6.972 6.972 0 01-2.64-5.46c0-3.78 3.12-7.32 8.1-7.38a9.144 9.144 0 016.6 2.82 27.058 27.058 0 013.66 5.46c.54.9.9 1.14 1.56 1.14 1.14 0 1.32-1.38 1.32-3.12 0-1.86-.42-4.32-1.62-5.7zm32.64-.72c10.2 0 16.44 9.96 16.44 20.7 0 10.38-6.12 18.72-15.96 18.72-10.02 0-16.38-9.66-16.38-20.76 0-11.46 7.14-18.66 15.9-18.66zm21.48 19.56c0-6.24-1.68-11.46-5.34-15.48-3.6-4.02-9-6.42-15.84-6.42-12.48 0-21.3 10.68-21.3 22.56 0 6.3 1.62 10.92 4.68 14.64 3.66 4.38 9.3 7.02 16.62 7.02 12.24 0 21.18-10.14 21.18-22.32zm29.28-19.56c10.2 0 16.44 9.96 16.44 20.7 0 10.38-6.12 18.72-15.96 18.72-10.02 0-16.38-9.66-16.38-20.76 0-11.46 7.14-18.66 15.9-18.66zm21.48 19.56c0-6.24-1.68-11.46-5.34-15.48-3.6-4.02-9-6.42-15.84-6.42-12.48 0-21.3 10.68-21.3 22.56 0 6.3 1.62 10.92 4.68 14.64 3.66 4.38 9.3 7.02 16.62 7.02 12.24 0 21.18-10.14 21.18-22.32zm46.74-21.18h-8.82c-1.14 0-1.8.3-1.8 1.08s.84.96 1.56 1.2c1.86.66 2.94 2.22 3.18 7.26.18 3.72.18 18.36.18 24.96a.22.22 0 01-.24.24c-.12 0-.24-.12-.36-.3L564 151.62a1.788 1.788 0 00-1.68-.72h-4.98c-.84 0-1.68.18-1.68 1.08 0 .96 1.14.96 2.4 1.38a4.8 4.8 0 011.92 1.2 1.01 1.01 0 01.36.84c0 1.38-.12 25.2-.3 28.5-.24 5.16-1.62 6.84-3.3 7.56-.6.3-1.38.54-1.44 1.26 0 .54.36 1.02 1.62 1.02h10.02c.84 0 1.5-.36 1.5-1.02 0-.48-.3-.84-1.08-1.14-2.58-.9-3.9-2.7-4.26-7.68-.18-3.06-.18-19.86-.18-25.14 0-.18.06-.3.24-.3.06 0 .12 0 .24.18l25.26 34.98c.24.3.42.6.84.6h1.2a.709.709 0 00.78-.72v-8.58c0-8.88 0-21.78.18-24.48.36-5.64 1.62-6.66 3.06-7.26.72-.3 1.56-.54 1.56-1.32s-.6-.96-1.68-.96z" fill="#1d1d1b"/></svg>