<svg xmlns="http://www.w3.org/2000/svg" width="106.143" height="152.917" viewBox="0 0 106.143 152.917">
  <g id="Group_34" data-name="Group 34" transform="translate(2373.879 -8263.552)">
    <g id="Group_33" data-name="Group 33">
      <g id="Group_29" data-name="Group 29">
        <path id="Path_25" data-name="Path 25" d="M-2277.339,8283.826l2.884-5.164-11.221-6.265-2.883,5.163a3.015,3.015,0,0,1-3.219,1.476,27.242,27.242,0,0,0-28.958,13.462l-50.1,89.726a12.066,12.066,0,0,0,7.314,17.511l9.381,2.6a12.051,12.051,0,0,1,4.988,2.785l7.135,6.623a12.065,12.065,0,0,0,18.744-2.96l50.1-89.727a27.242,27.242,0,0,0-3.731-31.716A3.013,3.013,0,0,1-2277.339,8283.826Z" fill="#f0efed"/>
        <path id="Path_26" data-name="Path 26" d="M-2333.843,8416.469a13.472,13.472,0,0,1-9.2-3.627l-7.134-6.623a10.607,10.607,0,0,0-4.368-2.439l-9.382-2.6a13.488,13.488,0,0,1-8.9-7.846,13.484,13.484,0,0,1,.674-11.841l50.1-89.728a28.683,28.683,0,0,1,30.554-14.2,1.519,1.519,0,0,0,1.624-.734l3.614-6.473,13.84,7.728-3.615,6.473a1.519,1.519,0,0,0,.227,1.769,28.679,28.679,0,0,1,3.937,33.462l-50.1,89.726a13.483,13.483,0,0,1-9.728,6.787A13.756,13.756,0,0,1-2333.843,8416.469Zm36.852-136.435a25.683,25.683,0,0,0-22.436,13.194l-50.1,89.728a10.5,10.5,0,0,0-.524,9.223,10.5,10.5,0,0,0,6.928,6.11l9.382,2.6a13.649,13.649,0,0,1,5.608,3.131l7.134,6.623a10.5,10.5,0,0,0,8.837,2.7,10.5,10.5,0,0,0,7.577-5.286l50.1-89.727a25.681,25.681,0,0,0-3.525-29.968,4.511,4.511,0,0,1-.638-5.262l2.152-3.854-8.6-4.8-2.152,3.854a4.521,4.521,0,0,1-4.815,2.217A25.876,25.876,0,0,0-2296.991,8280.034Z" fill="#1d1d1b"/>
      </g>
      <g id="Group_30" data-name="Group 30">
        <path id="Path_27" data-name="Path 27" d="M-2284.375,8342.189l-2.619-1.464a.824.824,0,0,0-.105.557c-.484-1.622-8.139-7.771-21.254-15.1s-22.358-10.616-24-10.175a.824.824,0,0,0,.418-.381l-2.619-1.463c.841-1.506,2.884-1.93,10.123.888a149.519,149.519,0,0,1,17.542,8.513,149.254,149.254,0,0,1,16.448,10.47C-2284.244,8338.722-2283.534,8340.683-2284.375,8342.189Z" fill="#1d1d1b"/>
        <path id="Path_28" data-name="Path 28" d="M-2300.3,8370.706l-2.619-1.463a.813.813,0,0,0-.1.556c-.484-1.623-8.139-7.772-21.254-15.1s-22.37-10.629-24-10.175a.823.823,0,0,0,.418-.381l-2.619-1.464c.84-1.506,2.882-1.931,10.122.89a149,149,0,0,1,17.543,8.511,149.2,149.2,0,0,1,16.448,10.47C-2300.168,8367.238-2299.457,8369.2-2300.3,8370.706Z" fill="#1d1d1b"/>
      </g>
      <g id="Group_31" data-name="Group 31">
        <path id="Path_29" data-name="Path 29" d="M-2362.667,8390.152l3.714,9.3a13.892,13.892,0,0,0,14.654,8.182l10.036-1.748" fill="#f0efed"/>
        <path id="Path_30" data-name="Path 30" d="M-2346.274,8409.307a15.6,15.6,0,0,1-14.072-9.294l-3.714-9.3a1.5,1.5,0,0,1,.837-1.949,1.5,1.5,0,0,1,1.949.838l3.714,9.3a12.341,12.341,0,0,0,13,7.261l10.035-1.748a1.5,1.5,0,0,1,1.735,1.22,1.5,1.5,0,0,1-1.22,1.735l-10.036,1.748A12.935,12.935,0,0,1-2346.274,8409.307Z" fill="#1d1d1b"/>
      </g>
      <g id="Group_32" data-name="Group 32">
        <path id="Path_31" data-name="Path 31" d="M-2283.766,8265.186c.309-.554,3.794.8,7.784,3.031s6.973,4.483,6.664,5.037l-4.773,8.548a.33.33,0,0,1-.548.045,28.264,28.264,0,0,0-6.449-4.484,28.255,28.255,0,0,0-7.2-3.139.33.33,0,0,1-.248-.489Z" fill="#f0efed"/>
        <path id="Path_32" data-name="Path 32" d="M-2274.38,8283.472a1.837,1.837,0,0,1-1.425-.681,26.95,26.95,0,0,0-6.015-4.119,26.951,26.951,0,0,0-6.665-2.961,1.832,1.832,0,0,1-1.4-.992,1.828,1.828,0,0,1,.036-1.714l4.775-8.551c.482-.863,1.29-2.314,9.824,2.454s7.725,6.212,7.242,7.077l-4.772,8.548a1.831,1.831,0,0,1-1.443.933C-2274.277,8283.47-2274.328,8283.472-2274.38,8283.472Zm.9-2.571,0,0Zm-13.021-7.746a43.051,43.051,0,0,1,6.14,2.9,42.867,42.867,0,0,1,5.688,3.706l3.616-6.475a33.7,33.7,0,0,0-5.661-3.757,33.653,33.653,0,0,0-6.168-2.849Zm-1.6-.418h0Zm5.641-6.817Z" fill="#1d1d1b"/>
      </g>
    </g>
  </g>
</svg>
