<svg xmlns="http://www.w3.org/2000/svg" width="66.521" height="106.978" viewBox="0 0 66.521 106.978">
  <g id="Group_28" data-name="Group 28" transform="translate(2684.337 -8378.569)">
    <g id="Group_26" data-name="Group 26">
      <g id="Group_24" data-name="Group 24">
        <path id="Path_19" data-name="Path 19" d="M-2630.464,8417c-5.519-8.358-11.15-16.643-16.258-25.259l-6.918-11.67-6.919,11.671c-5.107,8.615-10.738,16.9-16.257,25.258a36.46,36.46,0,0,0-6.021,20.105,29.2,29.2,0,0,0,29.2,29.2,29.2,29.2,0,0,0,29.2-29.2A36.461,36.461,0,0,0-2630.464,8417Z" fill="#f0efed"/>
        <path id="Path_20" data-name="Path 20" d="M-2653.64,8467.8a30.732,30.732,0,0,1-30.7-30.7,37.868,37.868,0,0,1,6.269-20.931q1.484-2.247,2.974-4.489c4.459-6.719,9.071-13.669,13.245-20.709l6.919-11.669a1.5,1.5,0,0,1,1.29-.735h0a1.5,1.5,0,0,1,1.291.735l6.918,11.669c4.176,7.046,8.792,14,13.255,20.725q1.484,2.235,2.964,4.474h0a37.872,37.872,0,0,1,6.268,20.931A30.731,30.731,0,0,1-2653.64,8467.8Zm0-84.79-5.629,9.493c-4.212,7.106-8.845,14.087-13.325,20.838q-1.488,2.24-2.97,4.482a34.873,34.873,0,0,0-5.773,19.278,27.729,27.729,0,0,0,27.7,27.7,27.728,27.728,0,0,0,27.7-27.7,34.882,34.882,0,0,0-5.772-19.278h0q-1.474-2.235-2.959-4.467c-4.484-6.757-9.121-13.742-13.337-20.854Z" fill="#1d1d1b"/>
      </g>
      <g id="Group_25" data-name="Group 25">
        <path id="Path_21" data-name="Path 21" d="M-2666.247,8420.521a36.459,36.459,0,0,0-6.021,20.105" fill="#f0efed"/>
        <path id="Path_22" data-name="Path 22" d="M-2672.268,8442.127a1.5,1.5,0,0,1-1.5-1.5,37.869,37.869,0,0,1,6.269-20.932,1.5,1.5,0,0,1,2.078-.427,1.5,1.5,0,0,1,.426,2.078,34.884,34.884,0,0,0-5.773,19.28A1.5,1.5,0,0,1-2672.268,8442.127Z" fill="#1d1d1b"/>
      </g>
    </g>
    <g id="Group_27" data-name="Group 27">
      <path id="Path_23" data-name="Path 23" d="M-2621.108,8458.582c-3.019-4.571-6.1-9.1-8.892-13.814l-3.784-6.383-3.783,6.383c-2.794,4.713-5.873,9.243-8.892,13.814a19.949,19.949,0,0,0-3.293,11,15.968,15.968,0,0,0,15.968,15.968,15.968,15.968,0,0,0,15.968-15.968A19.95,19.95,0,0,0-2621.108,8458.582Z" fill="#1d1d1b"/>
    </g>
  </g>
</svg>
